<svg xmlns="http://www.w3.org/2000/svg" viewBox="0 -960 960 960" fill="green" height="28" width="28"><path d="M479.971-103.078q-79.355 0-148.055-29.039t-119.701-80.076q-51.002-51.037-80.069-119.681-29.068-68.644-29.068-148.059 0-79.144 29.045-147.899 29.044-68.755 80.09-119.797 51.046-51.042 119.702-80.168Q400.571-856.922 480-856.922q70.581 0 131.867 22.558 61.286 22.557 110.786 62.75l-31.499 31.768q-43.146-35.319-96.445-54.275Q541.411-813.077 480-813.077q-140.731 0-236.904 96.173T146.923-480q0 140.731 96.173 236.904T480-146.923q140.731 0 236.904-96.173T813.077-480q0-30.756-4.847-59.24-4.846-28.484-13.653-55.529l32.73-33.307q14.269 34.115 21.942 71.256t7.673 76.82q0 79.459-29.097 148.142-29.097 68.683-80.133 119.672-51.037 50.989-119.759 80.048-68.723 29.06-147.962 29.06Zm-58.663-209.923L270.539-464.385l32.923-33.307 117.846 117.846 402.307-402.499 33.922 32.922-436.229 436.422Z"/></svg>